<svg width="1440" height="756" viewBox="0 0 1440 756" fill="none" xmlns="http://www.w3.org/2000/svg">
<path d="M1404.78 55.5278L1439 0.947632V755.5H0.00012207V574.588L36.1177 598.28L70.3342 574.588L104.551 539.96L138.767 541.782L172.984 549.072L207.201 581.925L241.417 574.731L275.634 597.536L309.851 602.164L344.067 566.792L378.284 575.905L412.501 550.485L446.717 586.887L480.934 566L515.151 558.71H549.367L583.584 504.034L617.801 521.181L652.017 495.666L686.234 478.328L720.451 438.089H754.667L788.884 449.912L823.1 405.38L857.317 425.427L891.534 349.072L925.75 341.782L959.967 327.202L994.184 201.591L1028.4 205.236L1062.62 185.189L1096.83 131.448L1131.05 111.4L1165.27 113.271L1199.48 120.608L1233.7 80.7155L1267.92 39L1302.13 49.9351L1336.35 79.0955L1370.57 57.3503L1404.78 55.5278Z" fill="url(#paint0_linear)"/>
<path d="M1439 0.947632L1404.78 55.5278L1370.57 57.3503L1336.35 79.0955L1302.13 49.9351L1267.92 39L1233.7 80.7155L1199.48 120.608L1165.27 113.271L1131.05 111.4L1096.83 131.448L1062.62 185.189L1028.4 205.236L994.184 201.591L959.967 327.202L925.75 341.782L891.534 349.072L857.317 425.427L823.1 405.38L788.884 449.912L754.667 438.089H720.451L686.234 478.328L652.017 495.666L617.801 521.181L583.584 504.034L549.367 558.71H515.151L480.934 566L446.717 586.887L412.501 550.485L378.284 575.905L344.067 566.792L309.851 602.164L275.634 597.536L241.417 574.731L207.201 581.925L172.984 549.072L138.767 541.782L104.551 539.96L70.3342 574.588L36.1177 598.28L0.00012207 574.588" stroke="white" stroke-opacity="0.2" stroke-width="2"/>
<circle cx="996" cy="517" r="231.5" stroke="#EF7F1A" stroke-opacity="0.2"/>
<defs>
<linearGradient id="paint0_linear" x1="719.5" y1="0.947632" x2="719.5" y2="755.5" gradientUnits="userSpaceOnUse">
<stop stop-color="#353A3D"/>
<stop offset="1" stop-color="#353A3D" stop-opacity="0"/>
</linearGradient>
</defs>
</svg>
