<svg width="65" height="51" viewBox="0 0 65 51" fill="none" xmlns="http://www.w3.org/2000/svg">
<g clip-path="url(#clip0)">
<path fill-rule="evenodd" clip-rule="evenodd" d="M6.5636 21.9431V23.5862H1.93278V25.4955H6.18375V27.014H1.93278V29.1953H6.66415V30.8384H0V21.9431H6.5636Z" fill="white"/>
<path fill-rule="evenodd" clip-rule="evenodd" d="M13.7584 22.1354C13.4455 22.0051 13.088 21.9427 12.697 21.9427H7.97119V30.8494H9.89839V27.3706H11.8256C12.3116 27.3706 12.6579 27.4783 12.8702 27.6936C13.0825 27.9088 13.222 28.2489 13.2891 28.7134C13.3394 29.0703 13.3785 29.4443 13.4008 29.8352C13.4232 30.2262 13.4902 30.5605 13.5963 30.8437H15.5235C15.4342 30.7191 15.3671 30.5718 15.3225 30.3905C15.2777 30.2149 15.2442 30.0222 15.2219 29.8239C15.1995 29.6256 15.1828 29.433 15.1772 29.2403C15.1738 29.122 15.1682 29.0143 15.1631 28.916C15.16 28.8544 15.157 28.7963 15.1549 28.7417C15.1437 28.5151 15.1102 28.2941 15.0654 28.0675C15.0152 27.8409 14.9482 27.6369 14.8476 27.4499C14.7527 27.263 14.6242 27.0987 14.4678 26.9626C14.3113 26.8267 14.1159 26.7247 13.8757 26.6567V26.6341C14.3672 26.4358 14.7192 26.1468 14.937 25.7615C15.1549 25.3763 15.261 24.923 15.261 24.4017C15.261 24.0618 15.1995 23.7445 15.0822 23.4498C14.965 23.1496 14.7918 22.8946 14.5683 22.668C14.3449 22.4413 14.0711 22.2657 13.7584 22.1354ZM13.0044 25.6658C12.7865 25.8641 12.4514 25.9661 12.0101 25.9661V25.9604H9.89858V23.4562H12.0101C12.4514 23.4562 12.781 23.5582 13.0044 23.7507C13.2222 23.9434 13.334 24.2607 13.334 24.6913C13.334 25.1445 13.2279 25.4675 13.0044 25.6658Z" fill="white"/>
<path fill-rule="evenodd" clip-rule="evenodd" d="M22.037 30.7711C21.6181 30.9524 21.1991 31.0374 20.769 31.0374C20.0986 31.0374 19.4953 30.9184 18.9535 30.6804C18.4173 30.4425 17.9648 30.1195 17.5961 29.7003C17.2274 29.2866 16.9425 28.7994 16.747 28.2384C16.5515 27.6775 16.4509 27.0713 16.4509 26.4254C16.4509 25.7625 16.5515 25.145 16.747 24.5727C16.9425 24.0061 17.2274 23.5075 17.5961 23.0826C17.9648 22.6577 18.4173 22.329 18.9535 22.0854C19.4898 21.8417 20.0931 21.7228 20.769 21.7228C21.2215 21.7228 21.6571 21.7907 22.0761 21.9268C22.5007 22.0627 22.8804 22.2667 23.2212 22.533C23.562 22.7992 23.8413 23.1279 24.0647 23.5188C24.2882 23.9098 24.4222 24.3574 24.4725 24.8673H22.6291C22.5118 24.3688 22.294 23.9948 21.9644 23.7455C21.6348 23.4962 21.2382 23.3716 20.7745 23.3716C20.3389 23.3716 19.9701 23.4565 19.6685 23.6265C19.3668 23.7964 19.1211 24.0231 18.9311 24.3121C18.7412 24.601 18.6072 24.924 18.5178 25.2922C18.434 25.6605 18.3893 26.0345 18.3893 26.4254C18.3893 26.7993 18.434 27.162 18.5178 27.5132C18.6016 27.8646 18.7412 28.1818 18.9311 28.4651C19.1211 28.7484 19.3668 28.9751 19.6685 29.145C19.9701 29.315 20.3389 29.3999 20.7745 29.3999C21.4114 29.3999 21.9085 29.2356 22.2549 28.907C22.6012 28.5784 22.8078 28.1025 22.8637 27.4793H20.9198V26.0231H24.6066V30.8334H23.3776L23.1821 29.8249C22.8358 30.2782 22.456 30.5955 22.037 30.7711Z" fill="white"/>
<path d="M19.8958 50.0326C19.8958 50.0326 32.9563 37.6758 30.2592 24.27C29.9493 22.7731 29.1668 16.5382 14.8198 8.37413C24.3418 11.5812 27.9281 13.4263 38.0649 10.2325C39.6388 9.10068 44.7669 8.41364 46.9308 0.0185119C47.2226 -0.499222 47.6401 13.4599 42.5207 23.224C42.373 23.7374 33.4259 40.2068 23.2796 47.8638C22.92 48.1011 19.8958 50.0326 19.8958 50.0326Z" fill="white"/>
<path d="M63.664 1.3241C63.664 1.3241 49.5539 12.5157 51.0432 26.0898C51.2182 27.6063 51.4409 33.8793 65.0001 43.2246C55.8036 39.2235 51.3468 36.4882 40.7901 39.4768C39.87 40.2294 36.8246 40.4109 32.2752 48.8157C31.9383 49.3063 32.7686 35.375 38.7387 26.0898C38.9316 25.5914 50.1691 9.53836 60.9573 2.77772C61.3366 2.57204 63.664 1.3241 63.664 1.3241Z" fill="white"/>
</g>
<defs>
<clipPath id="clip0">
<rect width="65" height="51" fill="white"/>
</clipPath>
</defs>
</svg>
